<?xml version="1.0" encoding="UTF-8" standalone="no"?>
<svg
   width="138.54015"
   height="34.160583"
   viewBox="0 0 138.54015 34.160584"
   version="1.1"
   id="svg99"
   xmlns:xlink="http://www.w3.org/1999/xlink"
   xmlns="http://www.w3.org/2000/svg"
   xmlns:svg="http://www.w3.org/2000/svg"
   xmlns:rdf="http://www.w3.org/1999/02/22-rdf-syntax-ns#"
   xmlns:cc="http://creativecommons.org/ns#"
   xmlns:dc="http://purl.org/dc/elements/1.1/">
  <title
     id="title56">Kbank_logo_260</title>
  <defs
     id="defs62">
    <polygon
       id="path-1"
       points="10.437956,0 10.437956,14.233577 0,14.233577 0,0 " />
    <polygon
       id="path-3"
       points="25.620438,0 25.620438,34.160584 0,34.160584 0,0 " />
    <polygon
       id="path-5"
       points="22.773723,0 22.773723,33.211679 0,33.211679 0,0 " />
    <polygon
       id="path-7"
       points="25.620438,0 25.620438,24.671533 0,24.671533 0,0 " />
  </defs>
  <g
     id="Kbank_logo_260"
     stroke="none"
     stroke-width="1"
     fill="none"
     fill-rule="evenodd">
    <g
       id="Group-19"
       transform="translate(249.56204,17.080292)">
      <mask
         id="mask-2"
         fill="#ffffff">
        <use
           xlink:href="#path-1"
           id="use72"
           x="0"
           y="0"
           width="100%"
           height="100%" />
      </mask>
      <g
         id="Clip-18" />
    </g>
    <g
       id="Group-22"
       transform="translate(30.364964)">
      <mask
         id="mask-4"
         fill="#ffffff">
        <use
           xlink:href="#path-3"
           id="use78"
           x="0"
           y="0"
           width="100%"
           height="100%" />
      </mask>
      <g
         id="Clip-21" />
      <path
         d="m 12.786833,28.104061 c -3.5221183,0 -6.3869547,-2.827597 -6.3869547,-6.303323 0,-3.476334 2.8648364,-6.30393 6.3869547,-6.30393 3.522117,0 6.386954,2.827596 6.386954,6.30393 0,3.475726 -2.864837,6.303323 -6.386954,6.303323 M 13.857684,9.4249164 c -2.517732,0 -4.8477582,0.8807766 -6.5605057,2.4801456 L 6.7075944,12.454788 V 0 H 0 v 21.285028 c 0,7.941567 4.8102172,12.875738 12.553584,12.875738 7.571661,0 13.066854,-5.191722 13.066854,-12.344842 0,-7.179848 -4.947459,-12.3910076 -11.762754,-12.3910076"
         id="Fill-20"
         fill="#0f0060"
         mask="url(#mask-4)" />
    </g>
    <polygon
       id="Fill-23"
       fill="#0f0060"
       points="6.6495526,2.2737367e-13 0,2.2737367e-13 0,33.211679 6.6495526,33.211679 6.6495526,18.225332 19.919107,33.211679 28.467153,33.211679 13.78579,16.605839 28.069724,2.2737367e-13 19.654958,2.2737367e-13 6.6495526,15.11929 " />
    <g
       id="Group-27"
       transform="translate(115.76642)">
      <mask
         id="mask-6"
         fill="#ffffff">
        <use
           xlink:href="#path-5"
           id="use85"
           x="0"
           y="0"
           width="100%"
           height="100%" />
      </mask>
      <g
         id="Clip-26" />
      <polygon
         id="Fill-25"
         fill="#0f0060"
         mask="url(#mask-6)"
         points="6.7103951,20.112466 6.7103951,-6.0417936e-05 0,-6.0417936e-05 0,33.211679 6.7103951,33.211679 6.7103951,23.255407 15.298642,33.211679 22.773723,33.211679 12.830344,21.683937 22.773723,10.156195 15.298642,10.156195 " />
    </g>
    <path
       d="m 103.1826,9.4890511 c -4.023885,0 -6.507117,1.8931439 -7.693111,3.2197869 V 10.273852 H 89.19708 v 22.937827 h 6.519082 l -5.98e-4,-12.491861 c 0,-3.122363 2.163258,-5.303568 4.868376,-5.303568 2.70572,0 4.86838,2.181205 4.86838,5.303568 v 12.491861 h 6.51848 V 18.752705 c 0,-5.367314 -3.87018,-9.2636539 -8.7882,-9.2636539"
       id="Fill-28"
       fill="#0f0060" />
    <g
       id="Group-32"
       transform="translate(58.832117,9.489051)">
      <mask
         id="mask-8"
         fill="#ffffff">
        <use
           xlink:href="#path-7"
           id="use92"
           x="0"
           y="0"
           width="100%"
           height="100%" />
      </mask>
      <g
         id="Clip-31" />
      <path
         d="m 12.964574,18.630861 c -3.4778412,0 -6.3066632,-2.820195 -6.3066632,-6.286825 0,-3.4672351 2.828822,-6.2874309 6.3066632,-6.2874309 3.47784,0 6.306662,2.8201958 6.306662,6.2874309 0,3.46663 -2.828822,6.286825 -6.306662,6.286825 M 12.764034,0 C 5.3683811,0 0,5.1975208 0,12.358576 c 0,7.134399 4.9466405,12.313139 11.761944,12.313139 4.84394,0 7.432115,-3.496922 7.457638,-3.532061 l 0.375556,-0.517389 v 3.276395 h 6.0253 V 12.358576 C 25.620438,5.1975208 20.213772,0 12.764034,0"
         id="Fill-30"
         fill="#0f0060"
         mask="url(#mask-8)" />
    </g>
  </g>
  <metadata
     id="metadata293">
    <rdf:RDF>
      <cc:Work
         rdf:about="">
        <dc:title>Kbank_logo_260</dc:title>
      </cc:Work>
    </rdf:RDF>
  </metadata>
</svg>
