<svg width="352.6" height="73.301" viewBox="0 0 352.6 73.301" xmlns="http://www.w3.org/2000/svg"><g id="svgGroup" stroke-linecap="round" fill-rule="evenodd" font-size="9pt" stroke="#140064" stroke-width="0.25mm" fill="#140064" style="stroke:#140064;stroke-width:0.25mm;fill:#140064"><path d="M 19.6 73.2 Q 12.9 73.2 8.55 70.9 A 18.429 18.429 0 0 1 5.07 68.549 A 14.078 14.078 0 0 1 2.1 65 A 15.506 15.506 0 0 1 0.36 60.713 A 13.621 13.621 0 0 1 0 57.6 Q 0 53.9 1.8 50.55 A 15.151 15.151 0 0 1 6.846 45.069 A 17.659 17.659 0 0 1 6.95 45 A 13.335 13.335 0 0 1 12.511 42.96 A 17.331 17.331 0 0 1 14.9 42.8 Q 14.8 43.7 14.8 44.45 L 14.8 45.2 A 56.223 56.223 0 0 0 14.927 49.109 Q 15.206 53.103 16.1 55.75 A 19.434 19.434 0 0 0 16.978 57.935 Q 17.484 58.991 18.068 59.802 A 7.687 7.687 0 0 0 19.4 61.25 A 8.231 8.231 0 0 0 20.914 62.256 A 5.671 5.671 0 0 0 23.5 62.9 A 7.517 7.517 0 0 0 28.402 61.085 A 10.261 10.261 0 0 0 29.2 60.35 Q 31.7 57.8 31.7 54.4 Q 31.7 50.6 28.45 47.7 A 65.426 65.426 0 0 0 25.766 45.441 Q 23.325 43.488 20.2 41.3 Q 17.4 39.2 14.25 36.55 Q 11.1 33.9 8.9 30.25 A 15.114 15.114 0 0 1 6.96 24.878 A 19.919 19.919 0 0 1 6.7 21.6 A 18.757 18.757 0 0 1 7.433 16.272 A 16.092 16.092 0 0 1 9.15 12.4 Q 11.6 8.4 15.65 5.65 Q 19.7 2.9 24.55 1.45 A 33.587 33.587 0 0 1 34.05 0.001 A 31.788 31.788 0 0 1 34.2 0 A 30.226 30.226 0 0 1 38.169 0.246 Q 41.466 0.683 43.9 1.9 A 16.521 16.521 0 0 1 46.861 3.773 A 12.346 12.346 0 0 1 49.6 6.8 A 12.5 12.5 0 0 1 51.083 10.044 A 10.675 10.675 0 0 1 51.5 13 A 10.918 10.918 0 0 1 50.062 18.384 A 13.072 13.072 0 0 1 49.85 18.75 Q 48.2 21.5 45 23.2 Q 41.8 24.9 37.1 24.9 Q 37.398 23.511 37.498 22.369 A 14.803 14.803 0 0 0 37.5 22.35 Q 37.586 21.362 37.598 20.558 A 17.168 17.168 0 0 0 37.6 20.3 A 18.335 18.335 0 0 0 37.439 17.779 Q 37.044 14.94 35.676 13.39 A 5.308 5.308 0 0 0 35.45 13.15 A 8.158 8.158 0 0 0 33.738 11.819 A 6.03 6.03 0 0 0 30.7 11 A 6.989 6.989 0 0 0 27.292 11.91 A 9.623 9.623 0 0 0 25.9 12.85 Q 23.926 14.438 23.646 17.684 A 13.013 13.013 0 0 0 23.6 18.8 A 11.061 11.061 0 0 0 24.02 21.909 A 9.106 9.106 0 0 0 25.45 24.8 Q 27.3 27.3 30.25 29.2 A 98.5 98.5 0 0 0 35.68 32.449 A 109.234 109.234 0 0 0 36.5 32.9 Q 39.9 34.7 43.05 36.85 A 21.368 21.368 0 0 1 47.618 41.012 A 19.909 19.909 0 0 1 48.3 41.9 A 10.731 10.731 0 0 1 50.08 45.992 A 15.248 15.248 0 0 1 50.4 49.2 A 17.367 17.367 0 0 1 48.554 56.922 A 21.066 21.066 0 0 1 47.9 58.15 A 25.921 25.921 0 0 1 42.4 64.779 A 30.323 30.323 0 0 1 41.1 65.85 A 34.755 34.755 0 0 1 32.954 70.542 A 39.967 39.967 0 0 1 31.25 71.2 Q 25.7 73.2 19.6 73.2 Z M 162.8 35.4 L 162 35.1 A 14.015 14.015 0 0 1 162.411 31.631 A 10.906 10.906 0 0 1 164 28.1 Q 166 25.2 169.1 23.7 A 14.823 14.823 0 0 1 173.509 22.332 A 13.58 13.58 0 0 1 175.4 22.2 Q 178 22.2 180.4 23.25 Q 182.8 24.3 184.35 26.5 A 8.256 8.256 0 0 1 185.663 29.59 A 11.669 11.669 0 0 1 185.9 32 Q 185.9 33.522 185.582 35.506 A 37.69 37.69 0 0 1 185.35 36.8 Q 184.8 39.6 184.1 42.6 Q 183.4 45.7 182.75 48.85 A 36.074 36.074 0 0 0 182.329 51.286 Q 182.164 52.5 182.118 53.578 A 19.16 19.16 0 0 0 182.1 54.4 A 11.354 11.354 0 0 0 182.19 55.878 Q 182.29 56.634 182.499 57.265 A 5.518 5.518 0 0 0 182.8 58 A 3.026 3.026 0 0 0 183.292 58.723 A 2.11 2.11 0 0 0 184.9 59.4 A 3.63 3.63 0 0 0 186.665 58.89 Q 187.998 58.148 189.477 56.327 A 24.754 24.754 0 0 0 190.75 54.6 Q 194 49.8 196 41.7 A 41.741 41.741 0 0 0 196.523 39.297 A 48.559 48.559 0 0 0 196.7 38.3 Q 197 36.5 197 34.6 Q 197 33.1 196.8 31.55 A 27.478 27.478 0 0 0 196.206 28.425 A 29.232 29.232 0 0 0 196.2 28.4 L 196.2 27.7 A 11.41 11.41 0 0 1 198.605 24.804 A 10.376 10.376 0 0 1 200.35 23.6 A 11.55 11.55 0 0 1 203.194 22.478 A 9.776 9.776 0 0 1 205.5 22.2 A 9.407 9.407 0 0 1 211.712 24.526 A 11.864 11.864 0 0 1 211.8 24.6 A 7.733 7.733 0 0 1 214.295 28.803 A 12.047 12.047 0 0 1 214.6 31.6 A 17.825 17.825 0 0 1 214.422 34.03 Q 214.178 35.798 213.6 37.85 Q 212.6 41.4 211.4 45.2 Q 210.2 48.9 209.2 52.5 A 31.374 31.374 0 0 0 208.553 55.293 Q 208.2 57.238 208.2 58.9 Q 208.2 62.907 210.97 62.998 A 3.966 3.966 0 0 0 211.1 63 Q 211.671 63 212.419 62.771 A 8.789 8.789 0 0 0 213.05 62.55 Q 214.001 62.178 214.85 61.155 A 7.919 7.919 0 0 0 215.2 60.7 L 215.9 60.9 A 11.257 11.257 0 0 1 215.213 64.876 A 10.376 10.376 0 0 1 213.95 67.25 Q 212 70 209 71.5 Q 206 73 202.8 73 A 10.408 10.408 0 0 1 195.963 70.451 A 13.564 13.564 0 0 1 195.45 70 Q 192.2 67 192.2 60.2 L 192.2 60 A 47.064 47.064 0 0 1 189.477 64.163 Q 186.656 67.985 183.7 70 A 21.485 21.485 0 0 1 180.762 71.701 Q 179.123 72.472 177.575 72.786 A 10.438 10.438 0 0 1 175.5 73 Q 171 73 167.95 69.3 Q 164.9 65.6 164.9 59.4 Q 164.9 56 165.7 52.1 Q 166.5 48.2 167.3 44.7 Q 168 42.1 168.45 39.85 A 31.562 31.562 0 0 0 168.687 38.527 Q 168.886 37.253 168.899 36.33 A 9.078 9.078 0 0 0 168.9 36.2 Q 168.9 34.471 168.208 33.665 A 1.978 1.978 0 0 0 168.15 33.6 A 2.678 2.678 0 0 0 167.474 33.069 A 2.22 2.22 0 0 0 166.4 32.8 A 3.316 3.316 0 0 0 165.103 33.074 A 4.499 4.499 0 0 0 164.4 33.45 Q 163.4 34.1 162.8 35.4 Z M 99.1 53.5 L 100.1 53.9 A 19.159 19.159 0 0 1 99.65 58.152 A 14.251 14.251 0 0 1 97.75 62.75 Q 95.4 66.4 91.7 68.75 Q 88 71.1 83.8 72.2 A 34.915 34.915 0 0 1 79.356 73.074 A 27.442 27.442 0 0 1 75.9 73.3 A 24.123 24.123 0 0 1 70.696 72.766 A 17.572 17.572 0 0 1 64.75 70.3 Q 60.2 67.3 57.9 62.45 Q 55.6 57.6 55.6 52 A 28.872 28.872 0 0 1 57.276 42.415 A 33.168 33.168 0 0 1 57.65 41.4 Q 59.7 36.1 63.7 31.65 A 29.475 29.475 0 0 1 73.092 24.718 A 33.664 33.664 0 0 1 73.45 24.55 A 28.428 28.428 0 0 1 81.214 22.289 A 37.328 37.328 0 0 1 86.7 21.9 Q 94.1 21.9 97.7 24.85 A 12.662 12.662 0 0 1 99.56 26.699 Q 100.566 27.952 100.99 29.294 A 6.613 6.613 0 0 1 101.3 31.3 A 7.529 7.529 0 0 1 99.926 35.587 Q 99.045 36.889 97.6 38.1 A 11.914 11.914 0 0 1 93.63 40.246 Q 91.913 40.813 89.827 41.043 A 27.649 27.649 0 0 1 86.8 41.2 Q 87.2 39.7 87.45 38.15 Q 87.7 36.6 87.7 35.2 A 8.183 8.183 0 0 0 87.551 33.601 Q 87.336 32.52 86.808 31.664 A 5.216 5.216 0 0 0 86.8 31.65 A 2.876 2.876 0 0 0 85.142 30.408 Q 84.471 30.2 83.6 30.2 A 5.373 5.373 0 0 0 81.646 30.59 Q 80.889 30.885 80.103 31.401 A 12.009 12.009 0 0 0 79.15 32.1 Q 77.117 33.744 75.608 36.735 A 22.349 22.349 0 0 0 75.15 37.7 A 17.733 17.733 0 0 0 73.969 41.525 Q 73.5 43.921 73.5 46.8 A 26.397 26.397 0 0 0 73.707 50.208 Q 73.94 51.993 74.435 53.479 A 12.585 12.585 0 0 0 75.25 55.4 Q 77 58.7 79.8 60.15 Q 82.6 61.6 85.7 61.6 A 15.708 15.708 0 0 0 93.124 59.711 A 18.568 18.568 0 0 0 93.6 59.45 Q 97.4 57.3 99.1 53.5 Z M 300.9 53.6 L 301.6 54.1 A 21.004 21.004 0 0 1 301.217 58.212 A 15.067 15.067 0 0 1 299.45 62.95 Q 297.3 66.6 293.8 68.9 Q 290.3 71.2 286.15 72.25 Q 282 73.3 277.9 73.3 Q 271.741 73.3 267.361 71.2 A 17.098 17.098 0 0 1 265.8 70.35 Q 261 67.4 258.6 62.55 Q 256.2 57.7 256.2 52.1 Q 256.2 46.8 258.25 41.45 Q 260.3 36.1 264.25 31.7 A 30.173 30.173 0 0 1 273.499 24.771 A 34.389 34.389 0 0 1 273.85 24.6 Q 279.5 21.9 286.6 21.9 A 31.155 31.155 0 0 1 291.174 22.213 Q 296.539 23.011 299.45 25.85 A 13.106 13.106 0 0 1 302.857 31.2 A 13.452 13.452 0 0 1 303.5 35.4 Q 303.5 40.2 300.95 44.25 Q 298.4 48.3 294.2 50.75 Q 290 53.2 285 53.2 A 18.237 18.237 0 0 1 280.541 52.631 A 20.915 20.915 0 0 1 279.7 52.4 Q 277 51.6 274.4 49.9 A 21.494 21.494 0 0 0 274.926 53.282 Q 275.359 55.05 276.094 56.423 A 9.053 9.053 0 0 0 278 58.9 Q 281.1 61.7 285.4 61.7 Q 288.4 61.7 291.4 60.55 Q 294.4 59.4 296.95 57.55 Q 299.5 55.7 300.9 53.6 Z M 219 34.2 L 218.8 33.5 A 28.8 28.8 0 0 1 221.378 30.774 A 24.216 24.216 0 0 1 223 29.4 Q 225.2 27.7 227.6 26.6 A 1428.927 1428.927 0 0 0 228.519 21.896 Q 228.878 20.039 229.198 18.352 A 775.725 775.725 0 0 0 229.8 15.15 Q 230.659 10.519 230.698 9.489 A 2.386 2.386 0 0 0 230.7 9.4 A 2.189 2.189 0 0 1 231.322 7.894 Q 231.942 7.213 233.181 6.672 A 10.098 10.098 0 0 1 233.35 6.6 A 14.351 14.351 0 0 1 237.204 5.619 A 18.039 18.039 0 0 1 239.3 5.5 Q 242.2 5.5 244.75 6.6 A 6.208 6.208 0 0 1 247.046 8.252 A 6.245 6.245 0 0 1 248.2 10.3 A 1.75 1.75 0 0 0 247.936 10.678 Q 247.377 11.682 246.5 14.75 A 111.625 111.625 0 0 0 245.661 17.87 Q 244.95 20.663 244.2 24.1 Q 246.1 24.2 248.1 24.3 Q 250.1 24.4 252.2 24.6 Q 252.4 25.2 252.5 25.9 A 9.907 9.907 0 0 1 252.586 26.814 A 11.931 11.931 0 0 1 252.6 27.4 Q 252.6 28.9 252.15 30.65 Q 251.7 32.4 251.1 33.8 A 138.035 138.035 0 0 1 248.217 33.531 A 113.463 113.463 0 0 1 246.6 33.35 A 60.149 60.149 0 0 0 242.563 33.003 A 55.169 55.169 0 0 0 242.5 33 Q 241.7 37.3 241.05 41.6 Q 240.4 45.9 240.05 49.4 Q 239.762 52.285 239.711 54.151 A 27.665 27.665 0 0 0 239.7 54.9 A 17.873 17.873 0 0 0 239.785 56.715 Q 239.978 58.595 240.607 59.687 A 3.309 3.309 0 0 0 241.25 60.5 Q 242.8 61.9 245 61.9 Q 247 61.9 248.6 61.1 A 7.803 7.803 0 0 0 249.634 60.487 Q 250.158 60.114 250.53 59.691 A 3.967 3.967 0 0 0 250.9 59.2 L 251.9 59.5 Q 251.3 63.6 248.7 66.65 Q 246.1 69.7 242.5 71.35 Q 238.9 73 235.3 73 Q 232.1 73 229.25 71.55 A 10.61 10.61 0 0 1 225.353 68.116 A 13.379 13.379 0 0 1 224.65 67 A 12.568 12.568 0 0 1 223.394 63.72 Q 222.9 61.65 222.9 59.1 A 35.59 35.59 0 0 1 222.949 57.319 Q 223.053 55.256 223.378 52.486 A 114.773 114.773 0 0 1 223.4 52.3 Q 223.9 48.1 224.75 43.1 Q 225.6 38.1 226.5 33.1 Q 224.5 33.2 222.65 33.5 Q 220.8 33.8 219 34.2 Z M 308.4 35.5 L 307.8 35.1 A 5.819 5.819 0 0 1 307.789 34.737 Q 307.789 33.256 308.5 31.3 A 13.509 13.509 0 0 1 310.025 28.347 A 16.637 16.637 0 0 1 311 27.05 A 13.436 13.436 0 0 1 313.935 24.439 A 16.407 16.407 0 0 1 315.35 23.6 Q 318 22.2 321.6 22.2 A 14.491 14.491 0 0 1 324.487 22.468 Q 327.611 23.104 329.3 25.25 A 11.181 11.181 0 0 1 331.64 31.271 A 14.42 14.42 0 0 1 331.7 32.6 Q 331.7 33.3 331.65 34.05 A 19.586 19.586 0 0 1 331.524 35.324 A 17.879 17.879 0 0 1 331.5 35.5 A 51.173 51.173 0 0 1 334.22 31.096 Q 336.566 27.72 339.05 25.55 Q 341.517 23.395 343.77 22.587 A 7.76 7.76 0 0 1 346.4 22.1 A 6.444 6.444 0 0 1 348.317 22.369 A 4.844 4.844 0 0 1 351.1 24.6 A 10.321 10.321 0 0 1 352.389 28.116 A 14.016 14.016 0 0 1 352.6 30.6 A 17.662 17.662 0 0 1 351.837 35.661 A 20.939 20.939 0 0 1 351.35 37.1 A 14.06 14.06 0 0 1 349.208 40.916 A 12.715 12.715 0 0 1 347.65 42.55 A 8.22 8.22 0 0 1 342.214 44.603 Q 342.112 44.605 342.009 44.605 A 10.821 10.821 0 0 1 341.7 44.6 L 341.3 44.4 A 7.124 7.124 0 0 0 341.014 42.605 A 5.138 5.138 0 0 0 339.6 40.3 A 5.78 5.78 0 0 0 338.068 39.249 A 4.885 4.885 0 0 0 336 38.8 A 5.604 5.604 0 0 0 332.956 39.727 Q 331.923 40.382 330.95 41.5 Q 329.049 43.685 328.686 47.44 A 19.348 19.348 0 0 0 328.6 49.3 A 31.549 31.549 0 0 0 328.821 52.946 A 40.652 40.652 0 0 0 329.3 56 Q 330 59.6 330 62.1 Q 330 65.1 328.6 67.6 A 11.721 11.721 0 0 1 326.478 70.372 A 10.498 10.498 0 0 1 325 71.55 Q 322.8 73 320.2 73 A 8.259 8.259 0 0 1 314.792 70.982 A 11.494 11.494 0 0 1 313.8 70.05 A 9.625 9.625 0 0 1 311.555 66.024 Q 311.121 64.525 311.027 62.729 A 19.499 19.499 0 0 1 311 61.7 A 26.836 26.836 0 0 1 311.115 59.291 Q 311.226 58.065 311.443 56.715 A 46 46 0 0 1 311.6 55.8 A 143.497 143.497 0 0 1 312.975 49.158 A 155.573 155.573 0 0 1 313 49.05 Q 313.8 45.6 314.4 42.55 Q 315 39.5 315 37.5 A 9.557 9.557 0 0 0 314.913 36.171 Q 314.745 34.975 314.25 34.15 A 3.228 3.228 0 0 0 313.765 33.518 A 2.009 2.009 0 0 0 312.3 32.9 A 3.243 3.243 0 0 0 310.742 33.328 Q 309.588 33.955 308.4 35.5 Z M 127.3 73.3 Q 119.8 73.3 114.9 70.3 Q 110 67.3 107.65 62.35 Q 105.3 57.4 105.3 51.8 A 30.298 30.298 0 0 1 107 41.904 A 34.448 34.448 0 0 1 107.25 41.2 Q 109.2 35.9 112.95 31.55 Q 116.7 27.2 122.1 24.55 A 25.682 25.682 0 0 1 129.877 22.213 A 33.047 33.047 0 0 1 134.5 21.9 A 30.357 30.357 0 0 1 139.752 22.329 Q 143.819 23.044 146.85 24.95 Q 151.7 28 154.05 33 Q 156.4 38 156.4 43.7 A 30.152 30.152 0 0 1 154.893 53.002 A 34.536 34.536 0 0 1 154.5 54.15 Q 152.6 59.4 148.85 63.75 Q 145.1 68.1 139.7 70.7 A 26.027 26.027 0 0 1 131.974 72.986 A 33.632 33.632 0 0 1 127.3 73.3 Z M 130 64.8 A 4.745 4.745 0 0 0 133.448 63.322 A 7.809 7.809 0 0 0 134.5 62 A 16.623 16.623 0 0 0 135.946 59.145 Q 136.517 57.708 136.937 56.011 A 31.037 31.037 0 0 0 137.2 54.85 Q 138.1 50.5 138.1 46 A 38.195 38.195 0 0 0 137.746 40.713 A 33.103 33.103 0 0 0 137.35 38.45 Q 136.743 35.576 135.644 33.554 A 11.697 11.697 0 0 0 135.1 32.65 A 5.784 5.784 0 0 0 133.991 31.392 A 4.241 4.241 0 0 0 131.2 30.4 A 4.586 4.586 0 0 0 128.11 31.606 Q 127.477 32.159 126.91 32.965 A 10.008 10.008 0 0 0 126.75 33.2 A 16.448 16.448 0 0 0 125.224 36.155 Q 124.478 38.016 124 40.3 Q 123.1 44.6 123.1 49.2 A 38.195 38.195 0 0 0 123.454 54.488 A 33.103 33.103 0 0 0 123.85 56.75 Q 124.457 59.624 125.556 61.646 A 11.697 11.697 0 0 0 126.1 62.55 A 5.784 5.784 0 0 0 127.209 63.808 A 4.241 4.241 0 0 0 130 64.8 Z M 280.2 46.3 A 9.037 9.037 0 0 0 282.517 46.018 A 6.698 6.698 0 0 0 285.4 44.45 Q 287.4 42.6 288.4 40.1 A 16.95 16.95 0 0 0 289 38.345 Q 289.247 37.455 289.341 36.656 A 8.13 8.13 0 0 0 289.4 35.7 A 6.72 6.72 0 0 0 289.151 33.831 A 5.358 5.358 0 0 0 288.1 31.85 A 4.251 4.251 0 0 0 285.263 30.346 A 6.124 6.124 0 0 0 284.5 30.3 Q 283.023 30.3 281.311 31.175 A 12.214 12.214 0 0 0 280.55 31.6 Q 278.4 32.9 276.7 36.05 A 14.768 14.768 0 0 0 275.633 38.631 Q 274.82 41.213 274.5 44.8 A 19.362 19.362 0 0 0 276.71 45.685 Q 277.861 46.06 278.905 46.206 A 9.321 9.321 0 0 0 280.2 46.3 Z" vector-effect="non-scaling-stroke"/></g></svg>
